<svg xmlns="http://www.w3.org/2000/svg" xmlns:xlink="http://www.w3.org/1999/xlink" version="1.1" x="0px" y="0px" viewBox="0 0 100 125" enable-background="new 0 0 100 100" xml:space="preserve"><g><circle fill="#000000" cx="39" cy="51.7" r="1.5"/><circle fill="#000000" cx="32.4" cy="43.1" r="1.5"/><circle fill="#000000" cx="49.3" cy="37.9" r="1.5"/><circle fill="#000000" cx="50.9" cy="50.7" r="2.8"/><path fill="#000000" d="M92.2,50.3c0-0.5,0-0.9,0-1.4c0-0.1,0-0.3-0.1-0.4c-0.3-6.8-1.5-12.2-3.6-16.1c-2-3.8-4.9-6-7.9-6   c-2.8,0-4.4,0.8-5.7,1.4c-1,0.5-1.7,0.8-2.8,0.8c-1.9,0-3.7-1.2-4.5-1.7v-9.9c0-3.2-2.4-5.8-5.4-6.3v-0.3c0-0.1,0-0.2,0-0.3   C61.7,8.4,59.6,5,55,5L20.3,5c-0.1,0-12,0.7-12,12.4v6.5c0,0.5-0.2,4.9,2.2,7.4c1.1,1.1,2.5,1.7,4.1,1.7c0.3,0,0.5,0,0.8-0.1v56.5   c0,3.1,2.5,5.6,5.6,5.6h41c3.1,0,5.6-2.5,5.6-5.6V75.6c0.8-0.6,2.6-1.7,4.5-1.7c1.1,0,1.8,0.4,2.8,0.8c1.3,0.6,2.9,1.4,5.7,1.4   c3,0,5.9-2.2,7.9-6c2.1-3.9,3.3-9.3,3.6-16.1c0-0.1,0.1-0.2,0.1-0.4c0-0.5,0-1,0-1.4c0-0.3,0-0.7,0-1   C92.2,50.9,92.2,50.6,92.2,50.3z M14.7,30.9c-1.1,0-1.9-0.3-2.6-1c-1.8-1.9-1.6-5.8-1.6-5.9c0,0,0,0,0-0.1v-6.5   c0-9.6,9.5-10.2,9.9-10.2H55c3.7,0,4.8,2.8,5,3.4H39.4c-4.8,0-8.8,3.9-8.8,8.8v17c0,0.1,0,0.1,0,0.2c0,0,0.2,1.4-0.5,2.2   c-0.4,0.5-1.2,0.8-2.2,0.8c-1,0-1.8-0.3-2.3-0.8c-0.8-0.9-0.6-2.3-0.6-2.3c0-0.1,0-0.1,0-0.2V25.9c0-1.9-1.5-3.4-3.4-3.4   c-1.8,0-3.3,1.4-3.4,3.3C18.1,29.2,16.9,30.9,14.7,30.9z M32.4,40.3c1.5,0,2.8,1.2,2.8,2.8c0,1.5-1.2,2.8-2.8,2.8   c-1.5,0-2.8-1.2-2.8-2.8c0-0.7,0.3-1.4,0.7-1.9c0.4-0.2,0.8-0.4,1.1-0.7C31.8,40.4,32.1,40.3,32.4,40.3z M39,81.8h-2v10.7h-9.2   V81.6c0.5,0.1,1.1,0.2,1.7,0.2H37V69.3c0-2.5-2.1-4.6-4.6-4.6s-4.6,2.1-4.6,4.6v12.4c-0.7-0.1-1.3-0.3-2-0.6v11.8H21   c-1.9,0-3.4-1.5-3.4-3.4V32.2c1.7-1.1,2.7-3.3,2.8-6.3c0-0.7,0.6-1.2,1.2-1.2c0.7,0,1.2,0.6,1.2,1.2v4.8h-2.5v41.9   c0,3.8,2.3,7,5.5,8.4V69.3c0-3.6,2.9-6.5,6.5-6.5c3.6,0,6.5,2.9,6.5,6.5V81.8z M36.2,51.7c0-1.5,1.2-2.8,2.8-2.8   c1.5,0,2.8,1.2,2.8,2.8c0,1.5-1.2,2.8-2.8,2.8C37.5,54.4,36.2,53.2,36.2,51.7z M43.7,92.9H39v-11h4.7V92.9z M54.8,81.7v10.8h-9.2   V81.8h-2V69.3c0-3.6,2.9-6.5,6.5-6.5c3.6,0,6.5,2.9,6.5,6.5v11.8C56.1,81.3,55.4,81.5,54.8,81.7l0-12.4c0-2.5-2.1-4.6-4.6-4.6   c-2.5,0-4.6,2.1-4.6,4.6v12.5h7.8C53.9,81.8,54.4,81.8,54.8,81.7C54.9,81.7,54.9,81.7,54.8,81.7z M50.9,46.3c2.4,0,4.4,2,4.4,4.4   c0,2.4-2,4.4-4.4,4.4s-4.4-2-4.4-4.4C46.5,48.3,48.5,46.3,50.9,46.3z M46.5,37.9c0-1.5,1.2-2.8,2.8-2.8s2.8,1.2,2.8,2.8   c0,1.5-1.2,2.8-2.8,2.8S46.5,39.5,46.5,37.9z M65.4,89.5c0,1.9-1.5,3.4-3.4,3.4h-5.2V81.2c-0.1,0-0.1,0-0.2,0.1   c3.5-1.3,6-4.6,6-8.6V30.8H32.8V19.4c0-3.2,2.3-5.9,5.4-6.5h23.1c2.3,0,4.2,1.9,4.2,4.2V89.5z M67.6,42.8c0.6-1.2,4.1-7.3,10.9-5.4   c3.5,1,5.8,8,5.1,15.6c-0.4,5-2.4,11-6.4,11.4c-7.9,0.8-9.4-4.5-9.6-5.3V42.8z M86.6,69.1c-1.6,3.1-3.8,4.8-6,4.8   c-2.3,0-3.6-0.6-4.8-1.2c-1.1-0.5-2.2-1-3.7-1c-1.7,0-3.3,0.7-4.5,1.3v-9.6c1.5,1.7,4,3.2,8,3.2c0.6,0,1.2,0,1.8-0.1   c5.4-0.5,7.8-7.3,8.4-13.4c0.7-7.8-1.4-16.4-6.7-17.9c-5.6-1.5-9.4,1.3-11.5,3.8v-9.5c1.2,0.6,2.8,1.3,4.5,1.3c1.6,0,2.7-0.5,3.7-1   c1.2-0.6,2.5-1.2,4.8-1.2c2.2,0,4.3,1.8,6,4.8c2.2,4,3.3,10.2,3.4,17.9C89.9,58.9,88.7,65.1,86.6,69.1z"/></g><text x="0" y="115" fill="#000000" font-size="5px" font-weight="bold" font-family="'Helvetica Neue', Helvetica, Arial-Unicode, Arial, Sans-serif">Created by parkjisun</text><text x="0" y="120" fill="#000000" font-size="5px" font-weight="bold" font-family="'Helvetica Neue', Helvetica, Arial-Unicode, Arial, Sans-serif">from the Noun Project</text></svg>